<svg width="28" height="28" viewBox="0 0 28 28" fill="none" xmlns="http://www.w3.org/2000/svg">
<g id="gdpr-policy">
<path id="Vector" d="M23.1875 3.0625C23.1875 1.8375 22.225 0.875 21 0.875H4.8125C3.5875 0.875 2.625 1.8375 2.625 3.0625V6.5625H6.125V24.9375C6.125 26.1625 7.0875 27.125 8.3125 27.125H23.1875C24.4125 27.125 25.375 26.1625 25.375 24.9375V22.75H23.1875V3.0625ZM6.125 5.6875H3.5V3.0625C3.5 2.31875 4.06875 1.75 4.8125 1.75C5.55625 1.75 6.125 2.31875 6.125 3.0625V5.6875ZM7 24.9375V3.0625C7 2.58125 6.825 2.14375 6.5625 1.75H21C21.7437 1.75 22.3125 2.31875 22.3125 3.0625V22.75H9.625V24.9375C9.625 25.6812 9.05625 26.25 8.3125 26.25C7.56875 26.25 7 25.6812 7 24.9375ZM24.5 23.625V24.9375C24.5 25.6812 23.9312 26.25 23.1875 26.25H10.0625C10.3688 25.8563 10.5 25.4188 10.5 24.9375V23.625H24.5Z" fill="#CAA969"/>
<path id="Vector_2" d="M17.9375 14.875H21.4375V15.75H17.9375V14.875ZM7.875 14.875H17.0625V15.75H7.875V14.875ZM12.6875 16.625H21.4375V17.5H12.6875V16.625ZM7.875 16.625H11.8125V17.5H7.875V16.625ZM15.75 20.125H21.4375V21H15.75V20.125ZM7.875 20.125H14.875V21H7.875V20.125ZM13.9125 9.8L14.4375 10.15L14.9625 9.8C16.5375 8.75 17.5 6.95625 17.5 5.075V3.63125L14.4375 2.625L11.375 3.63125V5.075C11.375 6.95625 12.3375 8.75 13.9125 9.8ZM12.25 4.24375L14.4375 3.5L16.625 4.24375V5.075C16.625 6.69375 15.8375 8.18125 14.4812 9.1H14.4375L14.3938 9.05625C13.0375 8.18125 12.25 6.65 12.25 5.03125V4.24375Z" fill="#CAA969"/>
<path id="Vector_3" d="M15.75 5.29356L14.875 5.20605C14.7875 5.9498 14.3938 6.64981 13.7812 7.08731L14.2625 7.83105C15.0937 7.21855 15.6625 6.29981 15.75 5.29356ZM10.5 18.3748H21.4375V19.2498H10.5V18.3748ZM7.875 18.3748H9.625V19.2498H7.875V18.3748ZM12.6875 13.1248H21.4375V13.9998H12.6875V13.1248ZM7.875 13.1248H11.8125V13.9998H7.875V13.1248ZM11.375 10.9373H17.5V11.8123H11.375V10.9373Z" fill="#CAA969"/>
</g>
</svg>
