<svg width="64" height="64" viewBox="0 0 64 64" fill="none" xmlns="http://www.w3.org/2000/svg">
<g id="transformer">
<path id="Vector" d="M63.3327 62.6669H0.666016V20.9336H63.3327V62.6669ZM3.33268 60.0003H60.666V23.6003H3.33268V60.0003Z" fill="#CAA969"/>
<path id="Vector_2" d="M23.8664 57.6006C23.5997 57.6006 23.3331 57.4673 23.0664 57.334C22.5331 56.934 22.3997 56.2673 22.6664 55.6006L28.9331 44.134L20.2664 44.0006C19.7331 44.0006 19.3331 43.734 19.0664 43.334C18.7997 42.934 18.9331 42.4007 19.1997 42.0006L30.2664 26.6673C30.5331 26.2673 30.9331 26.134 31.3331 26.134H41.0664C41.5997 26.134 41.9997 26.4007 42.2664 26.934C42.5331 27.4673 42.3997 28.0006 42.1331 28.4006L34.6664 37.2006H43.7331C44.2664 37.2006 44.7997 37.6006 44.9331 38.0006C45.0664 38.534 44.9331 39.0673 44.5331 39.4673L24.7997 57.2006C24.5331 57.4673 24.2664 57.6006 23.8664 57.6006ZM22.9331 41.4673L31.3331 41.6007C31.8664 41.6007 32.2664 41.8673 32.5331 42.2673C32.7997 42.6673 32.7997 43.2006 32.5331 43.6007L28.9331 50.0006L40.1331 39.8673H31.7331C31.1997 39.8673 30.7997 39.6006 30.5331 39.0673C30.2664 38.534 30.3997 38.0006 30.6664 37.6007L38.2664 28.6673H32.1331L22.9331 41.4673ZM52.2664 1.33398H54.9331V22.2673H52.2664V1.33398ZM30.6664 1.33398H33.3331V22.2673H30.6664V1.33398ZM9.06641 1.33398H11.7331V22.2673H9.06641V1.33398Z" fill="#CAA969"/>
<path id="Vector_3" d="M47.4668 6.13281H60.2668V8.79948H47.4668V6.13281ZM47.4668 13.3328H60.2668V15.9995H47.4668V13.3328Z" fill="#CAA969"/>
<g id="Group">
<path id="Vector_4" d="M25.5996 6.13281H38.3996V8.79948H25.5996V6.13281ZM25.5996 13.3328H38.3996V15.9995H25.5996V13.3328Z" fill="#CAA969"/>
</g>
<g id="Group_2">
<path id="Vector_5" d="M3.73242 6.13281H16.5324V8.79948H3.73242V6.13281ZM3.73242 13.3328H16.5324V15.9995H3.73242V13.3328Z" fill="#CAA969"/>
</g>
</g>
</svg>
